<svg xmlns="http://www.w3.org/2000/svg" viewBox="0 0 160 120" shape-rendering="crispEdges" width="640" height="480">
  <rect width="160" height="120" fill="#bfe3f2"/>
  <rect y="84" width="160" height="36" fill="#4a7a3a"/>
  <rect y="84" width="160" height="4" fill="#3d6830"/>
  <rect x="42" y="44" width="76" height="44" fill="#f2e6d0"/>
  <rect x="34" y="30" width="92" height="16" fill="#b5544a"/>
  <rect x="42" y="24" width="76" height="8" fill="#c9635a"/>
  <rect x="54" y="56" width="18" height="16" fill="#7fa9c9"/>
  <rect x="58" y="56" width="2" height="16" fill="#f2e6d0"/>
  <rect x="54" y="62" width="18" height="2" fill="#f2e6d0"/>
  <rect x="88" y="56" width="18" height="16" fill="#7fa9c9"/>
  <rect x="92" y="56" width="2" height="16" fill="#f2e6d0"/>
  <rect x="88" y="62" width="18" height="2" fill="#f2e6d0"/>
  <rect x="70" y="72" width="20" height="16" fill="#8b6b45"/>
  <rect x="84" y="79" width="3" height="3" fill="#f4b41b"/>
  <rect x="18" y="66" width="6" height="22" fill="#6b4a2f"/>
  <rect x="8" y="46" width="26" height="22" fill="#2f5c28"/>
  <rect x="12" y="42" width="18" height="6" fill="#3f7536"/>
  <rect x="136" y="70" width="5" height="18" fill="#6b4a2f"/>
  <rect x="128" y="54" width="22" height="18" fill="#2f5c28"/>
</svg>
